<svg id="Capa_1" enable-background="new 0 0 512 512" height="512" viewBox="0 0 512 512" width="512" xmlns="http://www.w3.org/2000/svg"><g id="XMLID_1091_"><path id="XMLID_1096_" d="m482 79.998h-37.457v-7.998c0-19.413-7.636-37.625-21.501-51.281-13.862-13.651-32.197-20.973-51.614-20.71-39.086.597-70.885 33.314-70.885 72.933v7.057h-89.086v-7.999c0-19.413-7.636-37.625-21.501-51.281-13.862-13.651-32.213-20.973-51.614-20.71-39.086.596-70.885 33.314-70.885 72.932v7.057h-37.457c-16.542 0-30 13.458-30 30v372c0 16.542 13.458 30 30 30h452c16.542 0 30-13.458 30-30v-372c0-16.542-13.458-30-30-30zm-161.457-7.057c0-28.758 22.963-52.504 51.189-52.935.272-.004.542-.006.814-.006 13.72 0 26.642 5.298 36.461 14.969 10.018 9.867 15.535 23.018 15.535 37.031v7.998h-20v-7.457c0-17.582-13.517-31.865-30.773-32.517-8.778-.342-17.087 2.84-23.413 8.931-6.329 6.094-9.814 14.278-9.814 23.046v35.998c0 11.585 6.299 22.297 16.438 27.957 3.483 1.944 5.563 5.295 5.563 8.965 0 3.577-1.844 6.815-4.933 8.661-1.435.858-5.243 2.6-9.601.255-16.941-9.111-27.466-26.676-27.466-45.838zm40 7.057v-7.998c0-3.282 1.309-6.35 3.687-8.639 2.374-2.286 5.504-3.481 8.784-3.352 6.357.241 11.529 5.862 11.529 12.532v7.457zm-273.086-7.057c0-28.758 22.963-52.504 51.189-52.935.272-.004.542-.006.814-.006 13.72 0 26.642 5.298 36.461 14.969 10.019 9.867 15.536 23.018 15.536 37.031v7.998h-20v-7.457c0-17.582-13.517-31.865-30.773-32.517-8.778-.342-17.087 2.84-23.413 8.931-6.329 6.094-9.814 14.278-9.814 23.046v35.998c0 11.585 6.299 22.297 16.438 27.957 3.483 1.944 5.563 5.295 5.563 8.965 0 3.577-1.844 6.815-4.933 8.661-1.434.858-5.243 2.6-9.601.255-16.941-9.111-27.466-26.676-27.466-45.838v-35.058zm40 7.057v-7.998c0-3.282 1.309-6.35 3.687-8.639 2.374-2.286 5.498-3.481 8.784-3.352 6.357.241 11.529 5.862 11.529 12.532v7.457zm-97.457 20h37.457v8c0 26.535 14.558 50.849 37.993 63.453 4.426 2.38 9.234 3.566 14.041 3.566 5.271 0 10.541-1.427 15.294-4.268 9.188-5.491 14.673-15.146 14.673-25.829 0-10.857-6.06-20.984-15.815-26.429-3.815-2.129-6.185-6.15-6.185-10.493v-8h173.086v8c0 26.535 14.558 50.849 37.993 63.453 4.426 2.38 9.234 3.566 14.041 3.566 5.271 0 10.541-1.427 15.294-4.268 9.188-5.491 14.673-15.146 14.673-25.829 0-10.857-6.06-20.984-15.815-26.429-3.815-2.129-6.185-6.15-6.185-10.493v-8h121.455c5.514 0 10 4.486 10 10v104.002h-472v-104.002c0-5.514 4.486-10 10-10zm-10 382v-247.998h472v162.999h-75c-11.046 0-20 8.954-20 20v75h-367c-5.514-.001-10-4.487-10-10.001zm462 10h-75l85-85v75c0 5.514-4.486 10-10 10z"/><path id="XMLID_1107_" d="m267.115 293.29h-22.229c-5.523 0-10 4.477-10 10s4.477 10 10 10h12.229v94c0 5.523 4.477 10 10 10s10-4.477 10-10v-104c0-5.523-4.477-10-10-10z"/></g></svg>