<svg id="Capa_1" enable-background="new 0 0 512 512" height="512" viewBox="0 0 512 512" width="512" xmlns="http://www.w3.org/2000/svg"><g><path d="m455.477 398.803c-25.981 0-47.91 17.649-54.493 41.599h-90.406c-5.269-19.169-20.369-34.289-39.513-39.566v-57.142h148.732c49.92 0 90.532-40.667 90.532-90.653 0-47.68-36.953-86.88-83.686-90.396-3.867-40.845-38.314-72.901-80.1-72.901-8.187 0-16.195 1.216-23.834 3.585-1.519-51.722-44.011-93.329-96.025-93.329-52.971 0-96.066 43.152-96.066 96.194v6.727h-8.551c-66.294 0-120.227 54.005-120.227 120.387s53.933 120.386 120.226 120.386h119.038v57.142c-19.144 5.276-34.244 20.397-39.513 39.566h-90.574c-6.583-23.949-28.512-41.599-54.493-41.599-31.167 0-56.524 25.39-56.524 56.598s25.357 56.599 56.524 56.599c25.981 0 47.91-17.649 54.493-41.599h90.574c6.583 23.95 28.512 41.599 54.493 41.599s47.91-17.649 54.493-41.599h90.406c6.584 23.95 28.512 41.599 54.494 41.599 31.167 0 56.523-25.39 56.523-56.599s-25.356-56.598-56.523-56.598zm-423.676-175.495c0-49.839 40.493-90.387 90.267-90.387h38.511v-36.727c0-36.5 29.655-66.194 66.106-66.194s66.106 29.695 66.106 66.194v50.954l23.861-17.587c8.713-6.422 19.05-9.817 29.892-9.817 27.846 0 50.5 22.685 50.5 50.567 0 1.774-.101 3.618-.3 5.48l-1.774 16.597h24.827c33.399 0 60.572 27.209 60.572 60.653s-27.173 60.652-60.572 60.652h-297.73c-49.774.001-90.266-40.546-90.266-90.385zm24.723 258.692c-14.647 0-26.564-11.932-26.564-26.599s11.917-26.599 26.564-26.599c14.648 0 26.563 11.932 26.563 26.599s-11.915 26.599-26.563 26.599zm199.56 0c-14.648 0-26.563-11.932-26.563-26.599s11.916-26.599 26.563-26.599 26.563 11.932 26.563 26.599-11.915 26.599-26.563 26.599zm199.393 0c-14.648 0-26.563-11.932-26.563-26.599s11.916-26.599 26.563-26.599 26.563 11.932 26.563 26.599-11.916 26.599-26.563 26.599z"/></g></svg>