<svg id="Capa_1" enable-background="new 0 0 512 512" height="512" viewBox="0 0 512 512" width="512" xmlns="http://www.w3.org/2000/svg"><path d="m370.339 0h-241.576c-2.652 0-5.196 1.054-7.071 2.929l-23.717 23.717-17.521-17.522c-11.915-11.914-31.302-11.915-43.217 0s-11.915 31.302 0 43.217l17.526 17.525-46.608 46.598c-1.876 1.875-2.93 4.419-2.93 7.072v378.464c0 5.523 4.477 10 10 10h303.418c5.523 0 10-4.477 10-10v-36.287h41.695c5.523 0 10-4.477 10-10v-445.713c.001-5.523-4.476-10-9.999-10zm-318.96 23.267c4.116-4.117 10.815-4.118 14.932 0l17.522 17.522-14.932 14.931-17.522-17.521c-4.117-4.117-4.117-10.816 0-14.932zm308.96 422.446h-286.499v-33.413c0-5.523-4.477-10-10-10-.001 0-.001 0-.002 0s-.001 0-.002 0c-5.523 0-10 4.477-10 10v43.413c0 3.107 1.417 5.883 3.64 7.717 1.729 1.428 3.946 2.286 6.364 2.286h244.804v26.284h-283.418v-364.322l28.61-28.604v225.288c0 5.523 4.477 10 10 10h.002s.001 0 .002 0c5.523 0 10-4.477 10-10v-235.418l8.601 8.601c7.455 7.456 17.368 11.562 27.911 11.562s20.456-4.106 27.912-11.561c15.39-15.391 15.39-40.432 0-55.823l-.722-.723c-3.905-3.905-10.237-3.905-14.143 0s-3.905 10.237 0 14.143l.722.722c7.592 7.592 7.592 19.945 0 27.538-3.678 3.678-8.568 5.704-13.769 5.704s-10.091-2.025-13.769-5.704l-13.54-13.54 49.862-49.863h227.434z"/><path d="m187.946 131.781h133.741c5.523 0 10-4.477 10-10v-51.026c0-5.523-4.477-10-10-10h-133.741c-5.523 0-10 4.477-10 10v51.025c0 5.524 4.477 10.001 10 10.001zm10-51.026h113.741v31.025h-113.741z"/><path d="m139.825 178.966h-23.315c-5.523 0-10 4.477-10 10s4.477 10 10 10h23.314c5.523 0 10-4.477 10-10s-4.476-10-9.999-10z"/><path d="m187.946 198.966h133.741c5.523 0 10-4.477 10-10s-4.477-10-10-10h-133.741c-5.523 0-10 4.477-10 10s4.477 10 10 10z"/><path d="m187.946 248.38h94.532c5.523 0 10-4.477 10-10s-4.477-10-10-10h-94.532c-5.523 0-10 4.477-10 10s4.477 10 10 10z"/><path d="m139.825 306.051h-23.315c-5.523 0-10 4.477-10 10s4.477 10 10 10h23.314c5.523 0 10-4.477 10-10s-4.476-10-9.999-10z"/><path d="m187.946 326.051h133.741c5.523 0 10-4.477 10-10s-4.477-10-10-10h-133.741c-5.523 0-10 4.477-10 10s4.477 10 10 10z"/><path d="m187.946 375.466h94.532c5.523 0 10-4.477 10-10s-4.477-10-10-10h-94.532c-5.523 0-10 4.477-10 10s4.477 10 10 10z"/><path d="m485.825 76.35c-11.684-11.105-24.039-11.472-26.643-11.418h-11.685v-2.724c0-5.523-4.477-10-10-10s-10 4.477-10 10v3.001c-12.329 1.82-21.823 12.469-21.823 25.296v211.038c0 40.437 5.424 80.712 16.121 119.708l6.059 22.089c1.191 4.343 5.14 7.354 9.644 7.354s8.453-3.011 9.644-7.355l6.059-22.089c10.697-38.996 16.121-79.271 16.121-119.708v-211.037c0-.663-.033-1.318-.083-1.968 1.07.753 2.172 1.662 3.276 2.762 6.506 6.488 14.262 20.799 14.262 52.133v89.424c0 5.523 4.477 10 10 10s10-4.477 10-10v-89.424c-.003-31.3-7.051-53.87-20.952-67.082zm-60.151 14.155c0-3.073 2.5-5.573 5.573-5.573h12.5c3.073 0 5.573 2.5 5.573 5.573v201.038h-23.646zm11.823 311.474c-7.076-29.642-11.002-59.963-11.707-90.437h23.415c-.705 30.475-4.631 60.796-11.708 90.437z"/><path d="m73.07 363.96c-1.616-3.943-5.727-6.462-9.971-6.145-4.35.325-8.052 3.523-9.015 7.776-1.88 8.307 7.283 15.041 14.674 10.884 4.336-2.44 6.227-7.918 4.312-12.515z"/></svg>