<svg id="Capa_1" enable-background="new 0 0 511.99 511.99" height="512" viewBox="0 0 511.99 511.99" width="512" xmlns="http://www.w3.org/2000/svg"><g><path d="m255.995 341.99c-39.907 0-70 17.196-70 40s30.093 40 70 40 70-17.196 70-40-30.094-40-70-40zm0 60c-30.522 0-50-11.846-50-20s19.478-20 50-20 50 11.846 50 20-19.478 20-50 20z"/><path d="m135.995 203.99c22.056 0 40-17.944 40-40s-17.944-40-40-40-40 17.944-40 40 17.944 40 40 40zm0-60c11.028 0 20 8.972 20 20s-8.972 20-20 20-20-8.972-20-20 8.972-20 20-20z"/><circle cx="465.996" cy="250.99" r="10"/><path d="m470.998 122.672-210-121.34c-3.07-1.777-6.943-1.776-10.01.002l-210 121.34c-3.09 1.788-4.993 5.087-4.993 8.656v250.2c0 .029.005.057.006.087.027 3.573 1.984 6.845 5.014 8.585l210 120.46c1.542.886 3.261 1.328 4.98 1.328 1.717 0 3.435-.442 4.976-1.326 0 0 209.964-120.439 209.982-120.449.104-.101 4.993-2.722 5.037-8.601 0-.028.006-.055.006-.084v-85.54c0-5.522-4.477-10-10-10s-10 4.478-10 10v68.229l-44.557-25.695-86.257-200.487c-1.45-3.369-4.626-5.674-8.279-6.007-3.653-.327-7.193 1.361-9.228 4.412l-41.68 62.519v-171.644l190 109.784v68.888c0 5.522 4.477 10 10 10s10-4.478 10-10v-74.659c0-3.571-1.905-6.872-4.997-8.658zm-225.003-95.344v194.662h-80c-3.952 0-7.534 2.328-9.139 5.939l-46.724 105.168-54.137 31.113v-227.112zm0 227.329-106.427 61.446 32.927-74.113h73.5zm10.003 235.803-189.963-108.953 189.963-109.532c22.579 13.02 182.524 105.256 189.939 109.532zm58.094-327.589 68.388 158.955-116.485-67.173v-19.636z"/></g></svg>